<?xml version="1.0" encoding="UTF-8"?>
<!DOCTYPE svg PUBLIC "-//W3C//DTD SVG 1.1//EN" "http://www.w3.org/Graphics/SVG/1.1/DTD/svg11.dtd">
<!-- Creator: CorelDRAW -->
<svg xmlns="http://www.w3.org/2000/svg" xml:space="preserve" width="217px" height="113px" style="shape-rendering:geometricPrecision; text-rendering:geometricPrecision; image-rendering:optimizeQuality; fill-rule:evenodd; clip-rule:evenodd"
viewBox="0 0 160.875 83.6824"
 xmlns:xlink="http://www.w3.org/1999/xlink">
 <defs>
  <style type="text/css">
   <![CDATA[
    .fil1 {fill:#333333}
    .fil2 {fill:#C31643}
    .fil0 {fill:#C31643;fill-rule:nonzero}
   ]]>
  </style>
 </defs>
 <g id="Layer_x0020_1">
  <metadata id="CorelCorpID_0Corel-Layer"/>
  <g id="_368633592">
   <path id="_374863552" class="fil0" d="M124.861 42.8029c0.154147,0.015765 0.194435,0.0148892 0.348582,0.0490467 0.114734,0.0253992 0.224213,0.0595567 0.334568,0.101597 0.0543017,0.0218958 0.109479,0.047295 0.159402,0.0709425l33.9026 16.4534c0.144513,0.0753217 0.180422,0.0902108 0.314424,0.182173 0.194435,0.138382 0.369602,0.307418 0.514114,0.500977 0.17867,0.24173 0.309169,0.518493 0.37836,0.811022 0.0849558,0.350333 0.0797008,0.719935 -0.005255,1.06939 -0.0595567,0.233848 -0.154147,0.457185 -0.28377,0.659503 -0.129623,0.203193 -0.29428,0.384491 -0.479081,0.53601 -0.233848,0.18918 -0.502728,0.331065 -0.792629,0.414269 -0.154147,0.0446675 -0.194435,0.0464192 -0.353837,0.0718183l-14.6877 1.78145 -1.79984 16.1828 -0.0253992 0.176043c-0.0350333,0.154147 -0.0394125,0.195311 -0.09459,0.345078 -0.0849558,0.223338 -0.19969,0.433538 -0.349458,0.620966 -0.144513,0.187428 -0.323183,0.350333 -0.522873,0.481708 -0.19969,0.131375 -0.418648,0.23122 -0.648117,0.293404 -0.289025,0.0779492 -0.593815,0.0980933 -0.888095,0.057805 -0.353837,-0.0464192 -0.692784,-0.180422 -0.987064,-0.386243 -0.243482,-0.170788 -0.453682,-0.390622 -0.613083,-0.642862 -0.08408,-0.134878 -0.099845,-0.173415 -0.164657,-0.317052l-15.4558 -36.3961c-0.0551775,-0.145388 -0.0744458,-0.181298 -0.114734,-0.332817 -0.0394125,-0.169912 -0.0648117,-0.345078 -0.0648117,-0.520245 0,-0.234723 0.0297783,-0.468571 0.099845,-0.691908 0.1051,-0.335444 0.289025,-0.644613 0.533383,-0.895978 0.204945,-0.2102 0.448427,-0.379236 0.718183,-0.495722 0.164657,-0.0691908 0.333693,-0.119989 0.503604,-0.149768 0.154147,-0.0271508 0.194435,-0.0253992 0.348582,-0.0341575 0.0604325,0.000875833 0.119989,0.0026275 0.175167,0.00350333zm14.0344 29.8729l1.05275 -9.4336 0.0245233 -0.174291c0.0148892,-0.057805 0.0245233,-0.11561 0.0402883,-0.172539 0.0499225,-0.170788 0.113858,-0.334568 0.198814,-0.489591 0.259247,-0.466819 0.68315,-0.832042 1.1815,-1.01772 0.110355,-0.0411642 0.225089,-0.07357 0.338948,-0.0972175 0.0551775,-0.0113858 0.114734,-0.0183925 0.175167,-0.0280267l8.88445 -1.0764 -21.6637 -10.5126c3.25635,7.66792 6.51182,15.335 9.76729,23.002z"/>
   <polygon id="_368635944" class="fil1" points="45.5127,49.2753 51.9939,49.2753 51.9939,55.7564 45.5127,55.7564 "/>
   <polygon id="_368638032" class="fil1" points="114.845,5.48447 74.7086,5.48447 74.7086,25.1785 110.424,25.1785 110.424,30.6629 74.7086,30.6629 74.7086,50.3569 114.458,50.3569 114.458,55.8414 69.2241,55.8414 69.2241,0 114.845,0 "/>
   <polygon id="_368639472" class="fil2" points="50.9674,5.48447 28.2255,5.48447 28.2255,55.5918 22.741,55.5918 22.741,5.48447 -0,5.48447 -0,0 50.9674,0 "/>
  </g>
 </g>
</svg>
